<svg xmlns="http://www.w3.org/2000/svg" width="21.372" height="21.372" viewBox="0 0 21.372 21.372"><defs><style>.a{opacity:0.36;}.b{fill:none;}.c{fill:#2f545a;}</style></defs><g class="a"><path class="b" d="M0,0H21.372V21.372H0Z"/><path class="c" d="M14.8,12.124a10.674,10.674,0,0,0-4.007.891,10.5,10.5,0,0,0-4.007-.891C4.856,12.124,1,13.086,1,15.018v2.449H20.591V15.018C20.591,13.086,16.735,12.124,14.8,12.124Zm-3.562,4.007H2.336V15.018c0-.481,2.28-1.558,4.453-1.558s4.453,1.078,4.453,1.558Zm8.015,0H12.577V15.018a1.62,1.62,0,0,0-.463-1.086A8.591,8.591,0,0,1,14.8,13.46c2.173,0,4.453,1.078,4.453,1.558Zm-12.467-4.9A3.117,3.117,0,1,0,3.672,8.117,3.12,3.12,0,0,0,6.788,11.234Zm0-4.9A1.781,1.781,0,1,1,5.007,8.117,1.786,1.786,0,0,1,6.788,6.336Zm8.015,4.9a3.117,3.117,0,1,0-3.117-3.117A3.12,3.12,0,0,0,14.8,11.234Zm0-4.9a1.781,1.781,0,1,1-1.781,1.781A1.786,1.786,0,0,1,14.8,6.336Z" transform="translate(-0.109 -0.547)"/></g></svg>