<svg xmlns="http://www.w3.org/2000/svg" width="21.372" height="21.372" viewBox="0 0 21.372 21.372"><defs><style>.a{opacity:0.36;}.b{fill:#2f545a;}.c{fill:none;}</style></defs><g class="a" transform="translate(0)"><path class="b" d="M6.562,4.781H8.343V3H6.562Zm0,7.124H8.343V10.124H6.562Zm0,7.124H8.343V17.248H6.562Zm3.562-3.562h1.781V13.686H10.124Zm0,3.562h1.781V17.248H10.124ZM3,19.029H4.781V17.248H3Zm0-3.562H4.781V13.686H3Zm0-3.562H4.781V10.124H3ZM3,8.343H4.781V6.562H3ZM3,4.781H4.781V3H3Zm7.124,7.124h1.781V10.124H10.124Zm7.124,3.562h1.781V13.686H17.248Zm0-3.562h1.781V10.124H17.248Zm0,7.124h1.781V17.248H17.248Zm0-10.686h1.781V6.562H17.248Zm-7.124,0h1.781V6.562H10.124ZM17.248,3V4.781h1.781V3ZM10.124,4.781h1.781V3H10.124Zm3.562,14.248h1.781V17.248H13.686Zm0-7.124h1.781V10.124H13.686Zm0-7.124h1.781V3H13.686Z" transform="translate(-0.328 -0.328)"/><path class="c" d="M0,0H21.372V21.372H0Z"/></g></svg>